<svg width="28" height="28" viewBox="0 0 28 28" fill="none" xmlns="http://www.w3.org/2000/svg">
<g clip-path="url(#clip0_49_32420)">
<path d="M14 28C21.732 28 28 21.732 28 14C28 6.26801 21.732 0 14 0C6.26801 0 0 6.26801 0 14C0 21.732 6.26801 28 14 28Z" fill="#000D2B"/>
<path fill-rule="evenodd" clip-rule="evenodd" d="M13.8528 5.13336L9.92547 7.45398L13.8528 9.77547L17.854 7.45398L13.8528 5.13336ZM14.4987 17.5246V22.1667L19.8334 19.0974V14.4544L14.4987 17.5246ZM14.4978 15.8782L18.4999 13.5567V8.91368L14.4978 11.2352V15.8782ZM8.8667 13.5567L12.8688 15.8782V11.2352L8.8667 8.91368V13.5567ZM12.8688 22.1667L8.8667 19.8461V15.204L12.8688 17.5246V22.1667Z" fill="white"/>
</g>
<defs>
<clipPath id="clip0_49_32420">
<rect width="28" height="28" fill="white"/>
</clipPath>
</defs>
</svg>
